<svg width="1279.6" height="97.2" viewBox="0 0 1279.6 97.2" xmlns="http://www.w3.org/2000/svg">
	<g id="svgGroup" stroke-linecap="round" fill-rule="evenodd" font-size="9pt" stroke="#000" stroke-width="0.25mm" fill="none" style="stroke:#000;stroke-width:0.25mm;fill:none">
		<path d="M 7.6 74.8 L 0 70.3 L 38.4 4 L 49.1 4 L 64.4 72.9 L 55.3 75 L 51.1 55 L 18.7 55 L 7.6 74.8 Z M 42.3 13.3 L 23.2 47 L 49.4 47 L 42.3 13.3 Z" id="0" vector-effect="non-scaling-stroke"/>
		<path d="M 93.5 0 L 83.7 56 A 49.016 49.016 0 0 0 83.53 57.201 Q 83.452 57.809 83.4 58.35 Q 83.3 59.4 83.3 60.2 A 9.051 9.051 0 0 0 83.553 62.405 A 6.16 6.16 0 0 0 85.35 65.5 A 6.947 6.947 0 0 0 88.708 67.194 A 10.099 10.099 0 0 0 90.8 67.4 Q 92.5 67.4 94.2 67 A 14.996 14.996 0 0 0 96.302 66.346 A 12.761 12.761 0 0 0 97.3 65.9 L 98.2 73.2 Q 96.4 74.1 94 74.65 Q 91.6 75.2 88.8 75.2 Q 82.8 75.2 78.55 71.75 Q 74.491 68.455 74.309 61.922 A 22.286 22.286 0 0 1 74.3 61.3 Q 74.3 58.7 74.7 56.2 L 84.5 0 L 93.5 0 Z" id="1" vector-effect="non-scaling-stroke"/>
		<path d="M 153.4 24.4 L 147.1 59.9 Q 147 60.4 146.95 61.05 A 17.363 17.363 0 0 0 146.901 62.215 A 19.322 19.322 0 0 0 146.9 62.4 A 7.658 7.658 0 0 0 147.026 63.84 Q 147.348 65.522 148.5 66.35 A 5.761 5.761 0 0 0 150.416 67.23 Q 151.441 67.5 152.7 67.5 L 149.6 74.5 Q 145.853 74.5 143.334 73.224 A 8.601 8.601 0 0 1 141.35 71.85 A 8.157 8.157 0 0 1 139.224 68.495 Q 138.76 67.167 138.593 65.531 A 19.074 19.074 0 0 1 138.5 63.6 Q 135.7 68.4 131.45 71.8 Q 127.2 75.2 121.5 75.2 Q 116.6 75.2 112.3 72.55 A 19.481 19.481 0 0 1 106.275 66.652 A 23.727 23.727 0 0 1 105.3 65.05 A 20.856 20.856 0 0 1 103.046 58.638 A 28.321 28.321 0 0 1 102.6 53.5 Q 102.6 43.8 106.85 36.45 Q 111.1 29.1 118.6 24.95 A 33.311 33.311 0 0 1 131.458 21.013 A 41.372 41.372 0 0 1 135.7 20.8 A 49.31 49.31 0 0 1 140.585 21.03 Q 143.547 21.325 146.05 22 Q 149.363 22.893 151.817 23.787 A 39.405 39.405 0 0 1 153.4 24.4 Z M 140.8 45.2 L 143.5 29.7 Q 141.6 29.1 139.55 28.75 Q 137.956 28.478 135.849 28.417 A 43.507 43.507 0 0 0 134.6 28.4 A 25.973 25.973 0 0 0 128.527 29.081 A 20.571 20.571 0 0 0 122.6 31.5 Q 117.5 34.6 114.65 40.05 Q 111.8 45.5 111.8 52.4 A 21.859 21.859 0 0 0 112.087 56.044 Q 112.509 58.537 113.55 60.5 Q 115.3 63.8 118.1 65.5 A 11.759 11.759 0 0 0 121.45 66.909 A 10.409 10.409 0 0 0 123.9 67.2 A 11.397 11.397 0 0 0 130.918 64.78 A 14.46 14.46 0 0 0 131.4 64.4 Q 134.8 61.6 137.25 56.6 Q 139.7 51.6 140.8 45.2 Z" id="2" vector-effect="non-scaling-stroke"/>
		<path d="M 201.8 25.7 L 198.2 33.3 A 34.942 34.942 0 0 0 193.272 30.48 A 40.241 40.241 0 0 0 191.75 29.8 Q 188.2 28.3 183.7 28.3 A 22.325 22.325 0 0 0 180.968 28.456 Q 178.188 28.8 176.4 29.9 A 6.585 6.585 0 0 0 175.029 30.998 A 4.393 4.393 0 0 0 173.8 34.1 Q 173.8 35.6 174.65 36.95 Q 175.458 38.233 177.53 39.652 A 21.678 21.678 0 0 0 177.75 39.8 A 37.727 37.727 0 0 0 179.337 40.796 Q 181.008 41.793 183.325 43 A 129.046 129.046 0 0 0 184.1 43.4 Q 188.616 45.658 191.588 48.026 A 21.949 21.949 0 0 1 194.2 50.45 A 12.688 12.688 0 0 1 197.48 58.582 A 16.428 16.428 0 0 1 197.5 59.4 A 16.507 16.507 0 0 1 197.02 63.48 A 12.32 12.32 0 0 1 194.7 68.2 A 16.238 16.238 0 0 1 189.165 72.601 A 20.306 20.306 0 0 1 187.2 73.45 A 27.468 27.468 0 0 1 181.026 74.933 A 35.442 35.442 0 0 1 176.6 75.2 Q 170.706 75.2 166.165 73.753 A 25.143 25.143 0 0 1 165.85 73.65 Q 161.2 72.1 157.8 69.6 L 162.9 62.2 A 23.108 23.108 0 0 0 166.874 64.786 A 28.626 28.626 0 0 0 169.3 65.9 A 20.657 20.657 0 0 0 175.508 67.328 A 24.55 24.55 0 0 0 177.4 67.4 A 21.387 21.387 0 0 0 180.455 67.195 Q 182.062 66.963 183.377 66.467 A 9.826 9.826 0 0 0 185.3 65.5 A 8.032 8.032 0 0 0 186.798 64.259 A 4.942 4.942 0 0 0 188.2 60.8 A 6.257 6.257 0 0 0 187.065 57.233 A 8.924 8.924 0 0 0 186.05 56 A 12.79 12.79 0 0 0 184.622 54.768 Q 183.03 53.564 180.453 52.142 A 76.771 76.771 0 0 0 177.7 50.7 Q 174.238 48.969 171.831 47.31 A 25.628 25.628 0 0 1 169.9 45.85 Q 167.252 43.627 166.124 41.092 A 10.055 10.055 0 0 1 166 40.8 A 14.579 14.579 0 0 1 165.089 37.361 A 19.408 19.408 0 0 1 164.9 34.6 Q 164.9 30.6 167.3 27.5 A 14.602 14.602 0 0 1 171.042 24.133 A 19.479 19.479 0 0 1 174 22.6 A 22.723 22.723 0 0 1 179.485 21.109 A 30.304 30.304 0 0 1 183.9 20.8 Q 189.5 20.8 193.95 22.25 A 44.882 44.882 0 0 1 198.382 23.946 A 34.688 34.688 0 0 1 201.8 25.7 Z" id="3" vector-effect="non-scaling-stroke"/>
		<path d="M 246.2 25.7 L 242.6 33.3 A 34.942 34.942 0 0 0 237.672 30.48 A 40.241 40.241 0 0 0 236.15 29.8 Q 232.6 28.3 228.1 28.3 A 22.325 22.325 0 0 0 225.368 28.456 Q 222.588 28.8 220.8 29.9 A 6.585 6.585 0 0 0 219.429 30.998 A 4.393 4.393 0 0 0 218.2 34.1 Q 218.2 35.6 219.05 36.95 Q 219.858 38.233 221.93 39.652 A 21.678 21.678 0 0 0 222.15 39.8 A 37.727 37.727 0 0 0 223.737 40.796 Q 225.408 41.793 227.725 43 A 129.046 129.046 0 0 0 228.5 43.4 Q 233.016 45.658 235.988 48.026 A 21.949 21.949 0 0 1 238.6 50.45 A 12.688 12.688 0 0 1 241.88 58.582 A 16.428 16.428 0 0 1 241.9 59.4 A 16.507 16.507 0 0 1 241.42 63.48 A 12.32 12.32 0 0 1 239.1 68.2 A 16.238 16.238 0 0 1 233.565 72.601 A 20.306 20.306 0 0 1 231.6 73.45 A 27.468 27.468 0 0 1 225.426 74.933 A 35.442 35.442 0 0 1 221 75.2 Q 215.106 75.2 210.565 73.753 A 25.143 25.143 0 0 1 210.25 73.65 Q 205.6 72.1 202.2 69.6 L 207.3 62.2 A 23.108 23.108 0 0 0 211.274 64.786 A 28.626 28.626 0 0 0 213.7 65.9 A 20.657 20.657 0 0 0 219.908 67.328 A 24.55 24.55 0 0 0 221.8 67.4 A 21.387 21.387 0 0 0 224.855 67.195 Q 226.462 66.963 227.777 66.467 A 9.826 9.826 0 0 0 229.7 65.5 A 8.032 8.032 0 0 0 231.198 64.259 A 4.942 4.942 0 0 0 232.6 60.8 A 6.257 6.257 0 0 0 231.465 57.233 A 8.924 8.924 0 0 0 230.45 56 A 12.79 12.79 0 0 0 229.022 54.768 Q 227.43 53.564 224.853 52.142 A 76.771 76.771 0 0 0 222.1 50.7 Q 218.638 48.969 216.231 47.31 A 25.628 25.628 0 0 1 214.3 45.85 Q 211.652 43.627 210.524 41.092 A 10.055 10.055 0 0 1 210.4 40.8 A 14.579 14.579 0 0 1 209.489 37.361 A 19.408 19.408 0 0 1 209.3 34.6 Q 209.3 30.6 211.7 27.5 A 14.602 14.602 0 0 1 215.442 24.133 A 19.479 19.479 0 0 1 218.4 22.6 A 22.723 22.723 0 0 1 223.885 21.109 A 30.304 30.304 0 0 1 228.3 20.8 Q 233.9 20.8 238.35 22.25 A 44.882 44.882 0 0 1 242.782 23.946 A 34.688 34.688 0 0 1 246.2 25.7 Z" id="4" vector-effect="non-scaling-stroke"/>
		<path d="M 301.4 24.4 L 295.1 59.9 Q 295 60.4 294.95 61.05 A 17.363 17.363 0 0 0 294.901 62.215 A 19.322 19.322 0 0 0 294.9 62.4 A 7.658 7.658 0 0 0 295.026 63.84 Q 295.348 65.522 296.5 66.35 A 5.761 5.761 0 0 0 298.416 67.23 Q 299.441 67.5 300.7 67.5 L 297.6 74.5 Q 293.853 74.5 291.334 73.224 A 8.601 8.601 0 0 1 289.35 71.85 A 8.157 8.157 0 0 1 287.224 68.495 Q 286.76 67.167 286.593 65.531 A 19.074 19.074 0 0 1 286.5 63.6 Q 283.7 68.4 279.45 71.8 Q 275.2 75.2 269.5 75.2 Q 264.6 75.2 260.3 72.55 A 19.481 19.481 0 0 1 254.275 66.652 A 23.727 23.727 0 0 1 253.3 65.05 A 20.856 20.856 0 0 1 251.046 58.638 A 28.321 28.321 0 0 1 250.6 53.5 Q 250.6 43.8 254.85 36.45 Q 259.1 29.1 266.6 24.95 A 33.311 33.311 0 0 1 279.458 21.013 A 41.372 41.372 0 0 1 283.7 20.8 A 49.31 49.31 0 0 1 288.585 21.03 Q 291.547 21.325 294.05 22 Q 297.363 22.893 299.817 23.787 A 39.405 39.405 0 0 1 301.4 24.4 Z M 288.8 45.2 L 291.5 29.7 Q 289.6 29.1 287.55 28.75 Q 285.956 28.478 283.849 28.417 A 43.507 43.507 0 0 0 282.6 28.4 A 25.973 25.973 0 0 0 276.527 29.081 A 20.571 20.571 0 0 0 270.6 31.5 Q 265.5 34.6 262.65 40.05 Q 259.8 45.5 259.8 52.4 A 21.859 21.859 0 0 0 260.087 56.044 Q 260.509 58.537 261.55 60.5 Q 263.3 63.8 266.1 65.5 A 11.759 11.759 0 0 0 269.45 66.909 A 10.409 10.409 0 0 0 271.9 67.2 A 11.397 11.397 0 0 0 278.918 64.78 A 14.46 14.46 0 0 0 279.4 64.4 Q 282.8 61.6 285.25 56.6 Q 287.7 51.6 288.8 45.2 Z" id="5" vector-effect="non-scaling-stroke"/>
		<path d="M 322.4 53.3 L 318.8 74 L 309.8 74 L 318.9 22 L 327.6 22 L 325.4 34 Q 328.5 28 333.75 24.4 Q 339 20.8 344.8 20.8 A 18.066 18.066 0 0 1 349.611 21.408 A 13.408 13.408 0 0 1 355.7 24.95 Q 359.8 29.1 359.8 35.1 A 26.953 26.953 0 0 1 359.729 36.972 Q 359.661 37.939 359.529 39.046 A 63.28 63.28 0 0 1 359.2 41.4 L 353.5 74 L 344.5 74 L 350 42.9 Q 350.395 41.004 350.54 39.889 A 12.759 12.759 0 0 0 350.6 39.35 A 27.175 27.175 0 0 0 350.683 38.037 A 21.894 21.894 0 0 0 350.7 37.2 Q 350.7 33.3 348.45 31 A 7.521 7.521 0 0 0 344.049 28.81 A 10.528 10.528 0 0 0 342.5 28.7 Q 339.591 28.7 336.266 30.497 A 22.78 22.78 0 0 0 334.9 31.3 A 20.18 20.18 0 0 0 331.199 34.364 Q 329.687 35.932 328.278 37.953 A 37.656 37.656 0 0 0 327.35 39.35 A 30.288 30.288 0 0 0 324.624 44.915 Q 323.577 47.703 322.854 50.998 A 57.014 57.014 0 0 0 322.4 53.3 Z" id="6" vector-effect="non-scaling-stroke"/>
		<path d="M 408.1 63.3 L 408.9 71.3 A 33.903 33.903 0 0 1 406.425 72.329 Q 405.054 72.841 403.451 73.331 A 71.576 71.576 0 0 1 401.3 73.95 A 35.228 35.228 0 0 1 395.485 74.994 A 45.074 45.074 0 0 1 391.1 75.2 A 25.965 25.965 0 0 1 384.706 74.442 A 21.265 21.265 0 0 1 379.45 72.35 Q 374.4 69.5 371.55 64.15 A 23.699 23.699 0 0 1 369.17 57.109 A 32.01 32.01 0 0 1 368.7 51.5 A 34.813 34.813 0 0 1 370.795 39.353 A 32.849 32.849 0 0 1 372.15 36.2 Q 375.6 29.2 381.95 25 A 25.315 25.315 0 0 1 393.436 20.973 A 31.965 31.965 0 0 1 396.8 20.8 A 25.579 25.579 0 0 1 401.224 21.163 Q 403.868 21.627 406.039 22.686 A 15.541 15.541 0 0 1 406.65 23 A 17.909 17.909 0 0 1 410.574 25.841 A 15.245 15.245 0 0 1 412.9 28.7 Q 415.1 32.2 415.1 36.2 A 19.183 19.183 0 0 1 414.703 40.207 Q 414.084 43.106 412.5 45.3 Q 409.9 48.9 405.8 50.85 Q 401.7 52.8 396.95 53.6 A 57.86 57.86 0 0 1 390.909 54.305 A 48.844 48.844 0 0 1 387.9 54.4 Q 385.2 54.4 382.55 54.15 A 108.588 108.588 0 0 1 380.356 53.922 Q 379.358 53.807 378.475 53.683 A 59.872 59.872 0 0 1 377.9 53.6 Q 378.604 59.406 381.707 62.813 A 12.499 12.499 0 0 0 382.6 63.7 A 13.486 13.486 0 0 0 389.601 66.967 A 18.622 18.622 0 0 0 392.6 67.2 A 32.871 32.871 0 0 0 397.186 66.895 A 24.388 24.388 0 0 0 401.5 65.9 Q 404.486 64.905 406.768 63.909 A 39.073 39.073 0 0 0 408.1 63.3 Z M 396.1 28.4 A 16.106 16.106 0 0 0 389.431 29.778 A 15.677 15.677 0 0 0 387.6 30.75 Q 383.8 33.1 381.35 37.15 A 24.072 24.072 0 0 0 378.566 44.026 A 28.963 28.963 0 0 0 378.1 46.4 Q 380.4 46.8 382.75 47.05 A 43.727 43.727 0 0 0 385.536 47.252 A 56.357 56.357 0 0 0 387.9 47.3 Q 393.413 47.3 397.418 46.288 A 20.157 20.157 0 0 0 401.2 44.95 A 8.906 8.906 0 0 0 404.162 42.745 Q 406.1 40.485 406.1 36.9 A 7.756 7.756 0 0 0 403.643 31.176 A 10.356 10.356 0 0 0 403.35 30.9 A 9.377 9.377 0 0 0 398.865 28.669 A 13.507 13.507 0 0 0 396.1 28.4 Z" id="7" vector-effect="non-scaling-stroke"/>
		<path d="M 490.5 25.7 L 486.9 33.3 A 34.942 34.942 0 0 0 481.972 30.48 A 40.241 40.241 0 0 0 480.45 29.8 Q 476.9 28.3 472.4 28.3 A 22.325 22.325 0 0 0 469.668 28.456 Q 466.888 28.8 465.1 29.9 A 6.585 6.585 0 0 0 463.729 30.998 A 4.393 4.393 0 0 0 462.5 34.1 Q 462.5 35.6 463.35 36.95 Q 464.158 38.233 466.23 39.652 A 21.678 21.678 0 0 0 466.45 39.8 A 37.727 37.727 0 0 0 468.037 40.796 Q 469.708 41.793 472.025 43 A 129.046 129.046 0 0 0 472.8 43.4 Q 477.316 45.658 480.288 48.026 A 21.949 21.949 0 0 1 482.9 50.45 A 12.688 12.688 0 0 1 486.18 58.582 A 16.428 16.428 0 0 1 486.2 59.4 A 16.507 16.507 0 0 1 485.72 63.48 A 12.32 12.32 0 0 1 483.4 68.2 A 16.238 16.238 0 0 1 477.865 72.601 A 20.306 20.306 0 0 1 475.9 73.45 A 27.468 27.468 0 0 1 469.726 74.933 A 35.442 35.442 0 0 1 465.3 75.2 Q 459.406 75.2 454.865 73.753 A 25.143 25.143 0 0 1 454.55 73.65 Q 449.9 72.1 446.5 69.6 L 451.6 62.2 A 23.108 23.108 0 0 0 455.574 64.786 A 28.626 28.626 0 0 0 458 65.9 A 20.657 20.657 0 0 0 464.208 67.328 A 24.55 24.55 0 0 0 466.1 67.4 A 21.387 21.387 0 0 0 469.155 67.195 Q 470.762 66.963 472.077 66.467 A 9.826 9.826 0 0 0 474 65.5 A 8.032 8.032 0 0 0 475.498 64.259 A 4.942 4.942 0 0 0 476.9 60.8 A 6.257 6.257 0 0 0 475.765 57.233 A 8.924 8.924 0 0 0 474.75 56 A 12.79 12.79 0 0 0 473.322 54.768 Q 471.73 53.564 469.153 52.142 A 76.771 76.771 0 0 0 466.4 50.7 Q 462.938 48.969 460.531 47.31 A 25.628 25.628 0 0 1 458.6 45.85 Q 455.952 43.627 454.824 41.092 A 10.055 10.055 0 0 1 454.7 40.8 A 14.579 14.579 0 0 1 453.789 37.361 A 19.408 19.408 0 0 1 453.6 34.6 Q 453.6 30.6 456 27.5 A 14.602 14.602 0 0 1 459.742 24.133 A 19.479 19.479 0 0 1 462.7 22.6 A 22.723 22.723 0 0 1 468.185 21.109 A 30.304 30.304 0 0 1 472.6 20.8 Q 478.2 20.8 482.65 22.25 A 44.882 44.882 0 0 1 487.082 23.946 A 34.688 34.688 0 0 1 490.5 25.7 Z" id="9" vector-effect="non-scaling-stroke"/>
		<path d="M 545.7 24.4 L 539.4 59.9 Q 539.3 60.4 539.25 61.05 A 17.363 17.363 0 0 0 539.201 62.215 A 19.322 19.322 0 0 0 539.2 62.4 A 7.658 7.658 0 0 0 539.326 63.84 Q 539.648 65.522 540.8 66.35 A 5.761 5.761 0 0 0 542.716 67.23 Q 543.741 67.5 545 67.5 L 541.9 74.5 Q 538.153 74.5 535.634 73.224 A 8.601 8.601 0 0 1 533.65 71.85 A 8.157 8.157 0 0 1 531.524 68.495 Q 531.06 67.167 530.893 65.531 A 19.074 19.074 0 0 1 530.8 63.6 Q 528 68.4 523.75 71.8 Q 519.5 75.2 513.8 75.2 Q 508.9 75.2 504.6 72.55 A 19.481 19.481 0 0 1 498.575 66.652 A 23.727 23.727 0 0 1 497.6 65.05 A 20.856 20.856 0 0 1 495.346 58.638 A 28.321 28.321 0 0 1 494.9 53.5 Q 494.9 43.8 499.15 36.45 Q 503.4 29.1 510.9 24.95 A 33.311 33.311 0 0 1 523.758 21.013 A 41.372 41.372 0 0 1 528 20.8 A 49.31 49.31 0 0 1 532.885 21.03 Q 535.847 21.325 538.35 22 Q 541.663 22.893 544.117 23.787 A 39.405 39.405 0 0 1 545.7 24.4 Z M 533.1 45.2 L 535.8 29.7 Q 533.9 29.1 531.85 28.75 Q 530.256 28.478 528.149 28.417 A 43.507 43.507 0 0 0 526.9 28.4 A 25.973 25.973 0 0 0 520.827 29.081 A 20.571 20.571 0 0 0 514.9 31.5 Q 509.8 34.6 506.95 40.05 Q 504.1 45.5 504.1 52.4 A 21.859 21.859 0 0 0 504.387 56.044 Q 504.809 58.537 505.85 60.5 Q 507.6 63.8 510.4 65.5 A 11.759 11.759 0 0 0 513.75 66.909 A 10.409 10.409 0 0 0 516.2 67.2 A 11.397 11.397 0 0 0 523.218 64.78 A 14.46 14.46 0 0 0 523.7 64.4 Q 527.1 61.6 529.55 56.6 Q 532 51.6 533.1 45.2 Z" id="10" vector-effect="non-scaling-stroke"/>
		<path d="M 590.2 45.6 L 594.3 22 L 603.3 22 L 594.2 74.6 A 49.205 49.205 0 0 1 593.124 79.423 Q 592.472 81.753 591.63 83.7 A 24.587 24.587 0 0 1 590.55 85.9 Q 588.154 90.203 584.992 92.641 A 16.324 16.324 0 0 1 584.85 92.75 A 21.288 21.288 0 0 1 580.216 95.433 A 18.976 18.976 0 0 1 578 96.2 Q 574.4 97.2 570.9 97.2 A 27.513 27.513 0 0 1 565.527 96.702 A 19.596 19.596 0 0 1 559.35 94.4 A 31.525 31.525 0 0 1 554.678 91.068 A 25.288 25.288 0 0 1 551.6 87.9 L 558.6 82.7 A 17.072 17.072 0 0 0 563.093 87.038 Q 566.75 89.4 571.5 89.4 Q 576.5 89.4 580.3 85.7 A 13.673 13.673 0 0 0 582.741 82.38 Q 584.513 79.107 585.523 74.033 A 50.827 50.827 0 0 0 585.7 73.1 L 587.6 62.5 Q 584.6 67.3 580 70.65 A 17.5 17.5 0 0 1 569.587 73.999 A 21.373 21.373 0 0 1 569.4 74 Q 565.5 74 562.2 72.25 Q 558.9 70.5 556.9 67.2 A 13.687 13.687 0 0 1 555.1 62.128 A 17.957 17.957 0 0 1 554.9 59.4 A 58.244 58.244 0 0 1 554.911 58.303 Q 554.923 57.644 554.95 56.9 A 18.483 18.483 0 0 1 555.098 55.167 A 23.164 23.164 0 0 1 555.3 53.9 L 560.7 22 L 569.7 22 L 564.2 53.7 A 22.327 22.327 0 0 0 563.942 55.869 A 18.333 18.333 0 0 0 563.9 57.1 A 12.578 12.578 0 0 0 564.146 59.673 Q 564.466 61.202 565.202 62.356 A 6.542 6.542 0 0 0 566.45 63.8 Q 569 66 572.4 66 Q 576.2 66 579.85 63.6 A 19.074 19.074 0 0 0 583.687 60.22 A 26.167 26.167 0 0 0 586.3 56.65 A 26.481 26.481 0 0 0 588.795 51.265 Q 589.657 48.729 590.167 45.79 A 43.189 43.189 0 0 0 590.2 45.6 Z" id="11" vector-effect="non-scaling-stroke"/>
		<path d="M 649.7 25.7 L 646.1 33.3 A 34.942 34.942 0 0 0 641.172 30.48 A 40.241 40.241 0 0 0 639.65 29.8 Q 636.1 28.3 631.6 28.3 A 22.325 22.325 0 0 0 628.868 28.456 Q 626.088 28.8 624.3 29.9 A 6.585 6.585 0 0 0 622.929 30.998 A 4.393 4.393 0 0 0 621.7 34.1 Q 621.7 35.6 622.55 36.95 Q 623.358 38.233 625.43 39.652 A 21.678 21.678 0 0 0 625.65 39.8 A 37.727 37.727 0 0 0 627.237 40.796 Q 628.908 41.793 631.225 43 A 129.046 129.046 0 0 0 632 43.4 Q 636.516 45.658 639.488 48.026 A 21.949 21.949 0 0 1 642.1 50.45 A 12.688 12.688 0 0 1 645.38 58.582 A 16.428 16.428 0 0 1 645.4 59.4 A 16.507 16.507 0 0 1 644.92 63.48 A 12.32 12.32 0 0 1 642.6 68.2 A 16.238 16.238 0 0 1 637.065 72.601 A 20.306 20.306 0 0 1 635.1 73.45 A 27.468 27.468 0 0 1 628.926 74.933 A 35.442 35.442 0 0 1 624.5 75.2 Q 618.606 75.2 614.065 73.753 A 25.143 25.143 0 0 1 613.75 73.65 Q 609.1 72.1 605.7 69.6 L 610.8 62.2 A 23.108 23.108 0 0 0 614.774 64.786 A 28.626 28.626 0 0 0 617.2 65.9 A 20.657 20.657 0 0 0 623.408 67.328 A 24.55 24.55 0 0 0 625.3 67.4 A 21.387 21.387 0 0 0 628.355 67.195 Q 629.962 66.963 631.277 66.467 A 9.826 9.826 0 0 0 633.2 65.5 A 8.032 8.032 0 0 0 634.698 64.259 A 4.942 4.942 0 0 0 636.1 60.8 A 6.257 6.257 0 0 0 634.965 57.233 A 8.924 8.924 0 0 0 633.95 56 A 12.79 12.79 0 0 0 632.522 54.768 Q 630.93 53.564 628.353 52.142 A 76.771 76.771 0 0 0 625.6 50.7 Q 622.138 48.969 619.731 47.31 A 25.628 25.628 0 0 1 617.8 45.85 Q 615.152 43.627 614.024 41.092 A 10.055 10.055 0 0 1 613.9 40.8 A 14.579 14.579 0 0 1 612.989 37.361 A 19.408 19.408 0 0 1 612.8 34.6 Q 612.8 30.6 615.2 27.5 A 14.602 14.602 0 0 1 618.942 24.133 A 19.479 19.479 0 0 1 621.9 22.6 A 22.723 22.723 0 0 1 627.385 21.109 A 30.304 30.304 0 0 1 631.8 20.8 Q 637.4 20.8 641.85 22.25 A 44.882 44.882 0 0 1 646.282 23.946 A 34.688 34.688 0 0 1 649.7 25.7 Z" id="12" vector-effect="non-scaling-stroke"/>
		<path d="M 727.1 43.8 L 693.1 43.8 L 694.6 35.6 L 728.6 35.6 L 727.1 43.8 Z" id="14" vector-effect="non-scaling-stroke"/>
		<path d="M 787.1 43.8 L 753.1 43.8 L 754.6 35.6 L 788.6 35.6 L 787.1 43.8 Z" id="15" vector-effect="non-scaling-stroke"/>
		<path d="M 813.1 62.6 L 809.5 55.6 L 838.2 39.1 L 815.1 23.2 L 820.9 16.8 L 849.3 36.8 L 848.3 42.5 L 813.1 62.6 Z" id="16" vector-effect="non-scaling-stroke"/>
		<path d="M 876.2 74 L 868.6 4.3 L 878.4 3.3 L 883.8 63.9 L 908.2 11.3 L 920.1 11.3 L 925.7 63.9 L 952.4 3.6 L 960.8 7.5 L 930 74 L 918.2 74 L 912.5 21.4 L 888 74 L 876.2 74 Z" id="17" vector-effect="non-scaling-stroke"/>
		<path d="M 995.1 63.3 L 995.9 71.3 A 33.903 33.903 0 0 1 993.425 72.329 Q 992.054 72.841 990.451 73.331 A 71.576 71.576 0 0 1 988.3 73.95 A 35.228 35.228 0 0 1 982.485 74.994 A 45.074 45.074 0 0 1 978.1 75.2 A 25.965 25.965 0 0 1 971.706 74.442 A 21.265 21.265 0 0 1 966.45 72.35 Q 961.4 69.5 958.55 64.15 A 23.699 23.699 0 0 1 956.17 57.109 A 32.01 32.01 0 0 1 955.7 51.5 A 34.813 34.813 0 0 1 957.795 39.353 A 32.849 32.849 0 0 1 959.15 36.2 Q 962.6 29.2 968.95 25 A 25.315 25.315 0 0 1 980.436 20.973 A 31.965 31.965 0 0 1 983.8 20.8 A 25.579 25.579 0 0 1 988.224 21.163 Q 990.868 21.627 993.039 22.686 A 15.541 15.541 0 0 1 993.65 23 A 17.909 17.909 0 0 1 997.574 25.841 A 15.245 15.245 0 0 1 999.9 28.7 Q 1002.1 32.2 1002.1 36.2 A 19.183 19.183 0 0 1 1001.703 40.207 Q 1001.084 43.106 999.5 45.3 Q 996.9 48.9 992.8 50.85 Q 988.7 52.8 983.95 53.6 A 57.86 57.86 0 0 1 977.909 54.305 A 48.844 48.844 0 0 1 974.9 54.4 Q 972.2 54.4 969.55 54.15 A 108.588 108.588 0 0 1 967.356 53.922 Q 966.358 53.807 965.475 53.683 A 59.872 59.872 0 0 1 964.9 53.6 Q 965.604 59.406 968.707 62.813 A 12.499 12.499 0 0 0 969.6 63.7 A 13.486 13.486 0 0 0 976.601 66.967 A 18.622 18.622 0 0 0 979.6 67.2 A 32.871 32.871 0 0 0 984.186 66.895 A 24.388 24.388 0 0 0 988.5 65.9 Q 991.486 64.905 993.768 63.909 A 39.073 39.073 0 0 0 995.1 63.3 Z M 983.1 28.4 A 16.106 16.106 0 0 0 976.431 29.778 A 15.677 15.677 0 0 0 974.6 30.75 Q 970.8 33.1 968.35 37.15 A 24.072 24.072 0 0 0 965.566 44.026 A 28.963 28.963 0 0 0 965.1 46.4 Q 967.4 46.8 969.75 47.05 A 43.727 43.727 0 0 0 972.536 47.252 A 56.357 56.357 0 0 0 974.9 47.3 Q 980.413 47.3 984.418 46.288 A 20.157 20.157 0 0 0 988.2 44.95 A 8.906 8.906 0 0 0 991.162 42.745 Q 993.1 40.485 993.1 36.9 A 7.756 7.756 0 0 0 990.643 31.176 A 10.356 10.356 0 0 0 990.35 30.9 A 9.377 9.377 0 0 0 985.865 28.669 A 13.507 13.507 0 0 0 983.1 28.4 Z" id="18" vector-effect="non-scaling-stroke"/>
		<path d="M 1028.2 0 L 1018.4 56 A 49.016 49.016 0 0 0 1018.23 57.201 Q 1018.152 57.809 1018.1 58.35 Q 1018 59.4 1018 60.2 A 9.051 9.051 0 0 0 1018.253 62.405 A 6.16 6.16 0 0 0 1020.05 65.5 A 6.947 6.947 0 0 0 1023.408 67.194 A 10.099 10.099 0 0 0 1025.5 67.4 Q 1027.2 67.4 1028.9 67 A 14.996 14.996 0 0 0 1031.002 66.346 A 12.761 12.761 0 0 0 1032 65.9 L 1032.9 73.2 Q 1031.1 74.1 1028.7 74.65 Q 1026.3 75.2 1023.5 75.2 Q 1017.5 75.2 1013.25 71.75 Q 1009.191 68.455 1009.009 61.922 A 22.286 22.286 0 0 1 1009 61.3 Q 1009 58.7 1009.4 56.2 L 1019.2 0 L 1028.2 0 Z" id="19" vector-effect="non-scaling-stroke"/>
		<path d="M 1080.4 24.8 L 1076.7 32.5 Q 1074.2 30.9 1071.3 29.85 A 17.591 17.591 0 0 0 1067.029 28.903 A 21.593 21.593 0 0 0 1064.9 28.8 A 17.621 17.621 0 0 0 1059.214 29.692 A 15.649 15.649 0 0 0 1055.25 31.7 Q 1051.1 34.6 1048.8 39.55 A 24.725 24.725 0 0 0 1046.687 47.266 A 30.781 30.781 0 0 0 1046.5 50.7 Q 1046.5 56.991 1049.138 61.124 A 13.972 13.972 0 0 0 1050.35 62.75 A 12.634 12.634 0 0 0 1059.116 67.13 A 17.631 17.631 0 0 0 1060.7 67.2 Q 1064.372 67.2 1067.204 66.36 A 16.535 16.535 0 0 0 1067.4 66.3 Q 1070.3 65.4 1072.7 64.2 L 1073.8 72.1 Q 1071.706 73.021 1068.877 73.872 A 66.868 66.868 0 0 1 1067.75 74.2 Q 1064.758 75.043 1060.737 75.175 A 46.672 46.672 0 0 1 1059.2 75.2 A 24.719 24.719 0 0 1 1052.909 74.429 A 20.382 20.382 0 0 1 1047.75 72.3 Q 1042.8 69.4 1040.05 64.15 A 23.777 23.777 0 0 1 1037.655 56.705 A 31.334 31.334 0 0 1 1037.3 51.9 A 35.636 35.636 0 0 1 1039.161 40.291 A 33.085 33.085 0 0 1 1040.75 36.45 Q 1044.2 29.4 1050.55 25.1 Q 1056.9 20.8 1065.6 20.8 A 32.885 32.885 0 0 1 1069.776 21.053 A 24.046 24.046 0 0 1 1073.95 21.95 A 32.656 32.656 0 0 1 1077.781 23.415 A 25.848 25.848 0 0 1 1080.4 24.8 Z" id="20" vector-effect="non-scaling-stroke"/>
		<path d="M 1099.604 74.584 A 30.696 30.696 0 0 0 1105.9 75.2 A 33.622 33.622 0 0 0 1110.173 74.936 A 26.204 26.204 0 0 0 1121.05 71.1 Q 1127.5 67 1131 59.95 A 32.483 32.483 0 0 0 1133.133 54.445 A 36.653 36.653 0 0 0 1134.5 44.3 Q 1134.5 37.4 1131.55 32.1 Q 1128.6 26.8 1123.2 23.8 A 23.014 23.014 0 0 0 1116.696 21.416 A 30.696 30.696 0 0 0 1110.4 20.8 A 33.406 33.406 0 0 0 1105.94 21.089 A 25.853 25.853 0 0 0 1095.3 24.9 Q 1088.9 29 1085.35 36 A 31.665 31.665 0 0 0 1083.043 41.998 A 36.693 36.693 0 0 0 1081.8 51.7 A 29.325 29.325 0 0 0 1081.941 54.606 A 23.813 23.813 0 0 0 1084.75 63.85 Q 1087.7 69.2 1093.1 72.2 A 23.014 23.014 0 0 0 1099.604 74.584 Z M 1106.2 67.2 A 20.372 20.372 0 0 0 1111.278 66.594 A 15.937 15.937 0 0 0 1116.45 64.25 A 19.086 19.086 0 0 0 1122.705 56.917 A 22.65 22.65 0 0 0 1123 56.3 A 25.217 25.217 0 0 0 1125.138 48.309 A 31.049 31.049 0 0 0 1125.3 45.1 Q 1125.3 40.5 1123.5 36.85 Q 1121.7 33.2 1118.3 31 A 13.5 13.5 0 0 0 1113.235 29.06 A 18.161 18.161 0 0 0 1110.1 28.8 A 19.814 19.814 0 0 0 1104.76 29.492 A 16.233 16.233 0 0 0 1099.9 31.75 A 19.058 19.058 0 0 0 1093.372 39.544 A 22.557 22.557 0 0 0 1093.3 39.7 A 25.217 25.217 0 0 0 1091.162 47.691 A 31.049 31.049 0 0 0 1091 50.9 Q 1091 55.4 1092.8 59.1 Q 1094.6 62.8 1098 65 A 13.5 13.5 0 0 0 1103.065 66.94 A 18.161 18.161 0 0 0 1106.2 67.2 Z" id="21" vector-effect="non-scaling-stroke"/>
		<path d="M 1188.2 52.5 L 1184.4 74 L 1175.4 74 L 1181.1 42.9 Q 1181.495 41.004 1181.64 39.889 A 12.759 12.759 0 0 0 1181.7 39.35 A 27.175 27.175 0 0 0 1181.783 38.037 A 21.894 21.894 0 0 0 1181.8 37.2 Q 1181.8 33.3 1179.55 31 A 7.552 7.552 0 0 0 1174.792 28.756 A 10.354 10.354 0 0 0 1173.7 28.7 A 10.82 10.82 0 0 0 1170.114 29.345 Q 1168.722 29.832 1167.273 30.688 A 21.08 21.08 0 0 0 1166.3 31.3 A 18.899 18.899 0 0 0 1162.853 34.302 Q 1161.437 35.852 1160.131 37.848 A 36.339 36.339 0 0 0 1159.2 39.35 A 32.209 32.209 0 0 0 1156.725 44.703 Q 1155.776 47.326 1155.08 50.406 A 62.206 62.206 0 0 0 1154.5 53.3 L 1150.9 74 L 1141.9 74 L 1151 22 L 1159.7 22 L 1157.5 34 A 25.988 25.988 0 0 1 1162.852 26.682 A 24.264 24.264 0 0 1 1165.65 24.4 A 20.966 20.966 0 0 1 1170.555 21.816 A 16.849 16.849 0 0 1 1176.3 20.8 A 16.652 16.652 0 0 1 1180.778 21.372 A 12.497 12.497 0 0 1 1186.3 24.55 A 14.465 14.465 0 0 1 1190.525 33.295 A 18.44 18.44 0 0 1 1190.6 34 Q 1194 27.8 1198.95 24.3 Q 1203.9 20.8 1209.7 20.8 A 17.478 17.478 0 0 1 1214.338 21.384 A 12.82 12.82 0 0 1 1220.35 24.95 A 14.17 14.17 0 0 1 1224.3 35.1 A 26.953 26.953 0 0 1 1224.229 36.972 Q 1224.161 37.939 1224.029 39.046 A 63.28 63.28 0 0 1 1223.7 41.4 L 1217.9 74 L 1208.9 74 L 1214.6 42.9 Q 1214.995 41.004 1215.14 39.889 A 12.759 12.759 0 0 0 1215.2 39.35 A 27.175 27.175 0 0 0 1215.283 38.037 A 21.894 21.894 0 0 0 1215.3 37.2 Q 1215.3 33.3 1213.05 31 A 7.552 7.552 0 0 0 1208.292 28.756 A 10.354 10.354 0 0 0 1207.2 28.7 A 10.287 10.287 0 0 0 1204.086 29.213 Q 1202.133 29.833 1200 31.2 Q 1196.1 33.7 1192.9 38.95 A 30.214 30.214 0 0 0 1190.43 44.115 Q 1189.045 47.823 1188.2 52.5 Z" id="22" vector-effect="non-scaling-stroke"/>
		<path d="M 1272.6 63.3 L 1273.4 71.3 A 33.903 33.903 0 0 1 1270.925 72.329 Q 1269.554 72.841 1267.951 73.331 A 71.576 71.576 0 0 1 1265.8 73.95 A 35.228 35.228 0 0 1 1259.985 74.994 A 45.074 45.074 0 0 1 1255.6 75.2 A 25.965 25.965 0 0 1 1249.206 74.442 A 21.265 21.265 0 0 1 1243.95 72.35 Q 1238.9 69.5 1236.05 64.15 A 23.699 23.699 0 0 1 1233.67 57.109 A 32.01 32.01 0 0 1 1233.2 51.5 A 34.813 34.813 0 0 1 1235.295 39.353 A 32.849 32.849 0 0 1 1236.65 36.2 Q 1240.1 29.2 1246.45 25 A 25.315 25.315 0 0 1 1257.936 20.973 A 31.965 31.965 0 0 1 1261.3 20.8 A 25.579 25.579 0 0 1 1265.724 21.163 Q 1268.368 21.627 1270.539 22.686 A 15.541 15.541 0 0 1 1271.15 23 A 17.909 17.909 0 0 1 1275.074 25.841 A 15.245 15.245 0 0 1 1277.4 28.7 Q 1279.6 32.2 1279.6 36.2 A 19.183 19.183 0 0 1 1279.203 40.207 Q 1278.584 43.106 1277 45.3 Q 1274.4 48.9 1270.3 50.85 Q 1266.2 52.8 1261.45 53.6 A 57.86 57.86 0 0 1 1255.409 54.305 A 48.844 48.844 0 0 1 1252.4 54.4 Q 1249.7 54.4 1247.05 54.15 A 108.588 108.588 0 0 1 1244.856 53.922 Q 1243.858 53.807 1242.975 53.683 A 59.872 59.872 0 0 1 1242.4 53.6 Q 1243.104 59.406 1246.207 62.813 A 12.499 12.499 0 0 0 1247.1 63.7 A 13.486 13.486 0 0 0 1254.101 66.967 A 18.622 18.622 0 0 0 1257.1 67.2 A 32.871 32.871 0 0 0 1261.686 66.895 A 24.388 24.388 0 0 0 1266 65.9 Q 1268.986 64.905 1271.268 63.909 A 39.073 39.073 0 0 0 1272.6 63.3 Z M 1260.6 28.4 A 16.106 16.106 0 0 0 1253.931 29.778 A 15.677 15.677 0 0 0 1252.1 30.75 Q 1248.3 33.1 1245.85 37.15 A 24.072 24.072 0 0 0 1243.066 44.026 A 28.963 28.963 0 0 0 1242.6 46.4 Q 1244.9 46.8 1247.25 47.05 A 43.727 43.727 0 0 0 1250.036 47.252 A 56.357 56.357 0 0 0 1252.4 47.3 Q 1257.913 47.3 1261.918 46.288 A 20.157 20.157 0 0 0 1265.7 44.95 A 8.906 8.906 0 0 0 1268.662 42.745 Q 1270.6 40.485 1270.6 36.9 A 7.756 7.756 0 0 0 1268.143 31.176 A 10.356 10.356 0 0 0 1267.85 30.9 A 9.377 9.377 0 0 0 1263.365 28.669 A 13.507 13.507 0 0 0 1260.6 28.4 Z" id="23" vector-effect="non-scaling-stroke"/>
	</g>
</svg>